<?xml version="1.0" encoding="UTF-8"?>
<svg width="101px" height="26px" viewBox="0 0 101 26" version="1.1" xmlns="http://www.w3.org/2000/svg" xmlns:xlink="http://www.w3.org/1999/xlink">
    <!-- Generator: Sketch 52.5 (67469) - http://www.bohemiancoding.com/sketch -->
    <title>Logo</title>
    <desc>Created with Sketch.</desc>
    <g id="Desktop" stroke="none" stroke-width="1" fill="none" fill-rule="evenodd">
        <g id="0A" transform="translate(-45.000000, -34.000000)">
            <g id="Left-side">
                <g id="Logo" transform="translate(45.000000, 34.000000)">
                    <path d="M36.4984745,20.4470764 C34.9562283,20.4470764 33.7447612,19.8470843 32.8640368,18.6470822 C31.9833124,17.44708 31.5429568,15.7843568 31.5429568,13.6588627 C31.5429568,11.501996 31.991141,9.82162598 32.8875227,8.61770221 C33.7839044,7.41377844 35.0188571,6.81182558 36.592418,6.81182558 C38.2442655,6.81182558 39.504661,7.45495437 40.3736424,8.74123123 L40.4910717,8.74123123 C40.3110125,7.76083728 40.2209843,6.88633899 40.2209843,6.11771014 L40.2209843,1.90595879 L43.8143217,1.90595879 L43.8143217,20.2117831 L41.0664754,20.2117831 L40.3736424,18.5059061 L40.2209843,18.5059061 C39.4068035,19.8000261 38.1659793,20.4470764 36.4984745,20.4470764 Z M37.7549684,17.588262 C38.6709217,17.588262 39.3422193,17.3215988 39.7688813,16.7882645 C40.1955434,16.2549302 40.4284425,15.3490598 40.4675859,14.0706261 L40.4675859,13.682392 C40.4675859,12.2706247 40.2503438,11.2588734 39.8158531,10.6471075 C39.3813624,10.0353417 38.6748363,9.72946339 37.6962537,9.72946339 C36.8977303,9.72946339 36.2773182,10.0686746 35.8349988,10.7471072 C35.3926795,11.4255398 35.1715231,12.4118013 35.1715231,13.7059214 C35.1715231,15.0000414 35.3946366,15.9706168 35.8408703,16.6176768 C36.287104,17.2647368 36.9251303,17.588262 37.7549684,17.588262 Z M50.4132488,13.611804 C50.4132488,14.9137672 50.6265766,15.8980679 51.0532386,16.5647358 C51.4799007,17.2314037 52.1746839,17.5647326 53.1376092,17.5647326 C54.0927059,17.5647326 54.7796606,17.2333645 55.1984939,16.5706182 C55.6173273,15.9078718 55.8267408,14.9216103 55.8267408,13.611804 C55.8267408,12.3098408 55.6153702,11.3333831 55.1926225,10.6824015 C54.7698748,10.03142 54.0770487,9.70593405 53.1141233,9.70593405 C52.1590267,9.70593405 51.4701149,10.0294592 51.0473672,10.6765192 C50.6246195,11.3235792 50.4132488,12.3019977 50.4132488,13.611804 Z M59.4905359,13.611804 C59.4905359,15.7529844 58.9268808,17.4274721 57.7995536,18.6353175 C56.6722264,19.8431628 55.1026034,20.4470764 53.0906375,20.4470764 C51.830223,20.4470764 50.7185698,20.1706095 49.7556445,19.6176673 C48.7927192,19.0647251 48.0529218,18.2706179 47.5362302,17.2353219 C47.0195386,16.2000259 46.7611966,14.9921987 46.7611966,13.611804 C46.7611966,11.4627805 47.3209375,9.79221425 48.4404361,8.6000552 C49.5599346,7.40789616 51.1334719,6.81182558 53.1610951,6.81182558 C54.4215095,6.81182558 55.5331627,7.08633177 56.496088,7.63535238 C57.4590133,8.18437299 58.1988107,8.9725979 58.7155023,10.0000508 C59.232194,11.0275036 59.4905359,12.2314093 59.4905359,13.611804 Z M71.7495566,20.2117831 L71.2680964,18.5294355 L71.0802094,18.5294355 C70.6966051,19.1412013 70.1525213,19.6137441 69.4479418,19.947078 C68.7433623,20.280412 67.9409366,20.4470764 67.0406405,20.4470764 C65.4983943,20.4470764 64.3358556,20.0333564 63.5529895,19.2059039 C62.7701233,18.3784514 62.3786962,17.188271 62.3786962,15.635327 L62.3786962,7.05888362 L65.9602907,7.05888362 L65.9602907,14.7412122 C65.9602907,15.6902335 66.1286044,16.4019889 66.4652368,16.8764995 C66.8018692,17.3510102 67.3381245,17.588262 68.0740186,17.588262 C69.0760872,17.588262 69.8002275,17.2529723 70.2464612,16.5823828 C70.6926949,15.9117934 70.9158084,14.8000433 70.9158084,13.2470993 L70.9158084,7.05888362 L74.4974029,7.05888362 L74.4974029,20.2117831 L71.7495566,20.2117831 Z M89.6804139,7.05888362 L89.6804139,8.88240725 L87.6254007,9.41181733 C88.0011764,10.0000537 88.1890614,10.6588686 88.1890614,11.3882817 C88.1890614,12.8000489 87.6978203,13.9000344 86.7153234,14.6882712 C85.7328264,15.4765079 84.3687027,15.8706204 82.6229112,15.8706204 L81.9770499,15.8353264 L81.448618,15.776503 C81.0806709,16.0588565 80.8967001,16.3725778 80.8967001,16.7176765 C80.8967001,17.2353245 81.5542978,17.4941446 82.8695128,17.4941446 L85.1006701,17.4941446 C86.5411437,17.4941446 87.639097,17.8039445 88.3945628,18.4235534 C89.1500286,19.0431624 89.5277558,19.9529544 89.5277558,21.1529566 C89.5277558,22.6902143 88.8877724,23.8823554 87.6077863,24.7294158 C86.3278002,25.5764762 84.4900496,26 82.0944793,26 C80.2625726,26 78.8632204,25.6803964 77.8963808,25.0411795 C76.9295411,24.4019627 76.4461285,23.505896 76.4461285,22.3529527 C76.4461285,21.5607944 76.6927277,20.8980581 77.1859333,20.3647238 C77.679139,19.8313895 78.4032793,19.4510023 79.3583759,19.2235509 C78.9904288,19.0666879 78.6694585,18.8098285 78.3954554,18.4529651 C78.1214523,18.0961017 77.9844528,17.7176753 77.9844528,17.3176746 C77.9844528,16.8157129 78.1292808,16.3980713 78.4189413,16.0647374 C78.7086017,15.7314035 79.1274288,15.4039568 79.6754351,15.0823876 C78.9865129,14.7843478 78.440472,14.3059227 78.037296,13.647098 C77.6341199,12.9882733 77.4325349,12.2118129 77.4325349,11.3176936 C77.4325349,9.8823969 77.8983333,8.7726076 78.8299439,7.98829244 C79.7615546,7.20397728 81.092407,6.81182558 82.8225411,6.81182558 C83.1904882,6.81182558 83.6269295,6.84515848 84.1318781,6.91182527 C84.6368268,6.97849205 84.9597542,7.02751102 85.1006701,7.05888362 L89.6804139,7.05888362 Z M79.5462628,22.0706007 C79.5462628,22.5647193 79.7830763,22.9529494 80.2567103,23.2353029 C80.7303443,23.5176563 81.3938133,23.658831 82.2471374,23.658831 C83.5310378,23.658831 84.5370057,23.4823627 85.2650712,23.1294209 C85.9931366,22.7764791 86.3571639,22.2941325 86.3571639,21.6823666 C86.3571639,21.1882481 86.141879,20.8470761 85.7113026,20.6588405 C85.2807262,20.4706048 84.6153,20.3764884 83.715004,20.3764884 L81.8596206,20.3764884 C81.2020131,20.3764884 80.6520579,20.5313884 80.2097385,20.8411928 C79.7674192,21.1509973 79.5462628,21.5607958 79.5462628,22.0706007 Z M80.8497284,11.3647523 C80.8497284,12.0784791 81.0121707,12.6431776 81.3370601,13.0588646 C81.6619495,13.4745516 82.1571049,13.682392 82.8225411,13.682392 C83.495806,13.682392 83.9890042,13.4745516 84.3021507,13.0588646 C84.6152971,12.6431776 84.771868,12.0784791 84.771868,11.3647523 C84.771868,9.78043569 84.1220988,8.98828927 82.8225411,8.98828927 C81.507326,8.98828927 80.8497284,9.78043569 80.8497284,11.3647523 Z M101,16.3059131 C101,17.6549352 100.532245,18.6823726 99.5967195,19.3882563 C98.6611945,20.0941399 97.2618423,20.4470764 95.398621,20.4470764 C94.4435244,20.4470764 93.6293558,20.3823714 92.956091,20.2529594 C92.2828261,20.1235474 91.6526283,19.9333538 91.0654788,19.682373 L91.0654788,16.7176765 C91.730915,17.0314026 92.480498,17.2941442 93.3142504,17.5059093 C94.1480028,17.7176744 94.8819288,17.8235554 95.5160503,17.8235554 C96.8156081,17.8235554 97.4653772,17.4470897 97.4653772,16.6941472 C97.4653772,16.4117937 97.3792632,16.182385 97.2070327,16.0059141 C97.0348021,15.8294431 96.7373175,15.6294458 96.3145698,15.405916 C95.8918221,15.1823861 95.3281669,14.9216053 94.6235874,14.6235655 C93.6136902,14.2000353 92.8719356,13.8078836 92.3983017,13.4470986 C91.9246677,13.0863137 91.5802117,12.6725936 91.3649236,12.2059261 C91.1496354,11.7392586 91.0419929,11.1647564 91.0419929,10.4824022 C91.0419929,9.31377259 91.4940913,8.40986293 92.3983017,7.77064607 C93.302512,7.13142922 94.584436,6.81182558 96.2441122,6.81182558 C97.8255017,6.81182558 99.3638105,7.15691908 100.859085,7.84711642 L99.778735,10.4353435 C99.1211274,10.15299 98.5065868,9.92162054 97.9350945,9.74122805 C97.3636023,9.56083557 96.7803758,9.47064068 96.1853975,9.47064068 C95.1285283,9.47064068 94.6001016,9.75691142 94.6001016,10.3294615 C94.6001016,10.6510307 94.7703724,10.9294584 95.1109192,11.1647529 C95.4514659,11.4000475 96.1971347,11.7490625 97.3479479,12.2118085 C98.3735025,12.6274955 99.1250427,13.0157257 99.602591,13.3765106 C100.080139,13.7372956 100.432424,14.1529764 100.659455,14.6235655 C100.886486,15.0941546 101,15.6549315 101,16.3059131 Z" id="dougs-copy" fill="#013A51"></path>
                    <path d="M20.9985158,4.06084555 L12.2624101,12.8131214 L8.40563565,8.94918409 C8.17098442,8.71412262 7.89237066,8.59659189 7.56974626,8.59659189 C7.24712186,8.59659189 6.96850809,8.71412262 6.73385686,8.94918409 L5.12075892,10.5652678 C4.88613174,10.8003534 4.7687941,11.0794828 4.7687941,11.4027044 C4.7687941,11.725926 4.88613174,12.0050795 5.12075892,12.240141 L11.4265448,18.5575745 C11.661172,18.7926601 11.9398098,18.9101908 12.2624101,18.9101908 C12.5850345,18.9101908 12.8636723,18.7926601 13.0982995,18.5575745 L23.3985674,8.2382621 C23.7888264,9.4214604 24,10.6860691 24,12 C24,18.627417 18.627417,24 12,24 C5.372583,24 0,18.627417 0,12 C0,5.372583 5.372583,0 12,0 C15.5832713,0 18.7997191,1.57055776 20.9985158,4.06084555 Z" id="Oval-7" fill="#11ABEC"></path>
                </g>
            </g>
        </g>
    </g>
</svg>