<svg width="880" height="443" viewBox="0 0 880 443" fill="none" xmlns="http://www.w3.org/2000/svg">
<path fill-rule="evenodd" clip-rule="evenodd" d="M541.979 184.327L559.276 199.461L574.41 182.164L557.115 167.03L541.979 184.327Z" stroke="#58676D" stroke-width="0.752378"/>
<path fill-rule="evenodd" clip-rule="evenodd" d="M239.278 199.16L233.921 221.002L219.219 209.319L239.278 199.16V199.16Z" stroke="#11ABEC" stroke-width="0.752378"/>
<path d="M817.835 1.59447C817.835 1.59447 713.376 23.0482 688.578 96.9206C663.781 170.793 665.319 294.62 532.941 318.829C400.562 343.039 373.242 202.831 424.081 163.064C474.92 123.298 545.495 178.227 527.055 246.67C508.614 315.114 291.524 409.184 18.9312 216.706" stroke="#11ABEC" stroke-width="1.5"/>
<path fill-rule="evenodd" clip-rule="evenodd" d="M540.538 270.269L563.084 274.727L567.542 252.18L544.997 247.721L540.538 270.269Z" fill="#11ABEC"/>
<path fill-rule="evenodd" clip-rule="evenodd" d="M269.367 298.883L283.122 310.918L295.157 297.163L281.403 285.128L269.367 298.883Z" fill="#636970"/>
<path fill-rule="evenodd" clip-rule="evenodd" d="M782.263 313.115C779.124 316.702 779.487 322.156 783.075 325.294V325.294C786.662 328.433 792.115 328.069 795.254 324.482V324.482C798.392 320.895 798.029 315.442 794.442 312.303V312.303C790.855 309.164 785.402 309.528 782.263 313.115V313.115Z" fill="#0ED094"/>
<path fill-rule="evenodd" clip-rule="evenodd" d="M128.447 277.926C124.268 282.702 124.751 289.963 129.528 294.142V294.142C134.304 298.321 141.564 297.836 145.743 293.06V293.06C149.922 288.284 149.438 281.024 144.662 276.845V276.845C139.886 272.666 132.626 273.15 128.447 277.926V277.926Z" fill="#C0E0ED"/>
<path fill-rule="evenodd" clip-rule="evenodd" d="M381.057 204.959C362.707 204.959 359.497 183.399 359.497 183.399L402.617 183.399C402.617 183.399 399.407 204.959 381.057 204.959Z" fill="#001A25"/>
<path fill-rule="evenodd" clip-rule="evenodd" d="M720.157 239.558C701.807 239.558 698.597 217.997 698.597 217.997L741.717 217.997C741.717 217.997 738.507 239.558 720.157 239.558Z" fill="#C0E9ED"/>
<path fill-rule="evenodd" clip-rule="evenodd" d="M92.5894 220.72C74.2395 220.72 71.0292 199.159 71.0292 199.159L114.15 199.159C114.15 199.159 110.939 220.72 92.5894 220.72Z" fill="#CFF6EA"/>
<path d="M449.043 302.916C449.056 302.981 449.071 303.052 449.086 303.126C449.207 303.703 449.401 304.53 449.69 305.524C450.268 307.515 451.227 310.163 452.745 312.806C455.778 318.085 461.002 323.287 469.891 323.287C478.78 323.287 484.004 318.085 487.037 312.806C488.555 310.163 489.514 307.515 490.092 305.524C490.381 304.53 490.575 303.703 490.696 303.126C490.711 303.052 490.726 302.981 490.739 302.916L449.043 302.916Z" stroke="#C0E9ED" stroke-width="1.18831"/>
<path d="M0.708588 297.184C0.737423 297.334 0.77187 297.506 0.812424 297.699C0.97406 298.47 1.23246 299.575 1.61824 300.902C2.39045 303.558 3.66969 307.093 5.69719 310.622C9.74919 317.676 16.7477 324.652 28.656 324.652C40.5643 324.652 47.5628 317.676 51.6148 310.622C53.6423 307.093 54.9215 303.558 55.6937 300.902C56.0795 299.575 56.3379 298.47 56.4995 297.699C56.5401 297.506 56.5745 297.334 56.6034 297.184L0.708588 297.184Z" stroke="#0ED094" stroke-width="1.18831"/>
</svg>
